<svg xmlns="http://www.w3.org/2000/svg" viewBox="0 0 1200 630" role="img" aria-label="Ceangal social card">
  <rect width="1200" height="630" fill="#f4f0e6"/>
  <rect x="58" y="58" width="1084" height="514" rx="40" fill="#efe7d9" stroke="#d6c7b1" stroke-width="2"/>
  <rect x="88" y="88" width="304" height="304" rx="68" fill="#f4f0e6"/>
  <path d="M151 255c0-32.8 26.2-59 59-59h49c22.1 0 40 17.9 40 40s-17.9 40-40 40H164c-24.9 0-45-20.1-45-45s20.1-45 45-45h89c32.8 0 59 26.2 59 59s-26.2 59-59 59H171" fill="none" stroke="#1e1c18" stroke-width="24" stroke-linecap="round" stroke-linejoin="round"/>
  <path d="M162 286c8.8 15.8 25.7 26 45 26h53" fill="none" stroke="#c8381a" stroke-width="24" stroke-linecap="round"/>
  <path d="M188 156h74" fill="none" stroke="#c8381a" stroke-width="24" stroke-linecap="round"/>
  <text x="440" y="216" fill="#1e1c18" font-family="Georgia, 'Times New Roman', serif" font-size="84" font-weight="700" letter-spacing="0">Ceangal</text>
  <text x="440" y="292" fill="#c8381a" font-family="Arial, Helvetica, sans-serif" font-size="34" font-weight="700" letter-spacing="0">Cluiche Focal Gaeilge</text>
  <text x="440" y="362" fill="#3d372f" font-family="Arial, Helvetica, sans-serif" font-size="28" letter-spacing="0">
    <tspan x="440" dy="0">Aimsigh na ceangail fholaithe idir 16 fhocal.</tspan>
    <tspan x="440" dy="42">Find the hidden connections between 16 Irish words.</tspan>
  </text>
  <text x="88" y="524" fill="#6f6457" font-family="Arial, Helvetica, sans-serif" font-size="26" letter-spacing="0">ceangal.app</text>
</svg>
